<svg width="251" height="24" viewBox="0 0 251 24" fill="none" xmlns="http://www.w3.org/2000/svg">
    <path
        d="M0.565155 1.1123V0.703613H11.0398V1.14258C9.87928 1.14258 9.12749 1.40999 8.78439 1.94482C8.45139 2.46956 8.28488 3.16585 8.28488 4.03369V19.6851C8.28488 20.1795 8.33029 20.6235 8.42111 21.0171C8.51193 21.4106 8.74907 21.7689 9.13254 22.0918C9.52609 22.4046 10.1215 22.561 10.9187 22.561H11.0398V23H0.565155V22.561C1.71555 22.561 2.46229 22.2987 2.80539 21.7739C3.14849 21.2492 3.32004 20.5529 3.32004 19.6851V4.03369C3.32004 3.00439 3.09299 2.2627 2.63889 1.80859C2.19488 1.3444 1.50363 1.1123 0.565155 1.1123ZM25.2677 0.703613H34.6676V1.14258C33.4667 1.22331 32.3012 1.62191 31.171 2.33838C30.0509 3.05485 29.0468 3.87728 28.1588 4.80566L24.1324 8.95312L33.3355 20.1543C34.607 21.6882 35.7927 22.4904 36.8927 22.561V23H26.5392V22.561C26.9024 22.5207 27.2102 22.445 27.4625 22.334C27.7148 22.2129 27.8409 22.0111 27.8409 21.7285C27.8409 21.446 27.634 21.0524 27.2203 20.5479L20.318 12.0562H20.2271V19.6851C20.2271 20.7244 20.4441 21.4661 20.878 21.9102C21.322 22.3441 22.0234 22.561 22.982 22.561V23H12.5074V22.561C13.678 22.561 14.4298 22.2987 14.7628 21.7739C15.0958 21.2492 15.2623 20.5529 15.2623 19.6851V4.03369C15.2623 3.02458 15.0655 2.28792 14.672 1.82373C14.2885 1.34945 13.567 1.1123 12.5074 1.1123V0.703613H22.982V1.14258C21.8215 1.14258 21.0698 1.40999 20.7267 1.94482C20.3937 2.46956 20.2271 3.16585 20.2271 4.03369V11.3145L26.8268 4.3667C27.4827 3.59977 27.8106 2.96908 27.8106 2.47461C27.8106 1.58659 26.963 1.14258 25.2677 1.14258V0.703613ZM38.3452 1.1123V0.703613H48.8198V1.14258C47.6593 1.14258 46.9075 1.40999 46.5644 1.94482C46.2314 2.46956 46.0649 3.16585 46.0649 4.03369V19.6851C46.0649 20.1795 46.1103 20.6235 46.2012 21.0171C46.292 21.4106 46.5291 21.7689 46.9126 22.0918C47.3061 22.4046 47.9015 22.561 48.6987 22.561H48.8198V23H38.3452V22.561C39.4956 22.561 40.2423 22.2987 40.5854 21.7739C40.9285 21.2492 41.1001 20.5529 41.1001 19.6851V4.03369C41.1001 3.00439 40.873 2.2627 40.4189 1.80859C39.9749 1.3444 39.2837 1.1123 38.3452 1.1123ZM71.5243 6.87939H71.0853C70.5 5.33545 69.5212 4.08415 68.1488 3.12549C66.7865 2.15674 65.1921 1.67236 63.3656 1.67236C61.9528 1.67236 60.7772 1.9751 59.8387 2.58057C58.9003 3.18604 58.1686 3.99333 57.6439 5.00244C57.1293 6.00146 56.771 7.08626 56.5692 8.25684C56.3674 9.42741 56.2665 10.6636 56.2665 11.9653C56.2665 15.1945 56.9073 17.6769 58.1888 19.4126C59.4805 21.1382 61.2162 22.001 63.3959 22.001C64.96 22.001 65.9388 21.7689 66.3324 21.3047C66.7259 20.8405 66.9227 20.1543 66.9227 19.2461V16.6729C66.9227 16.1582 66.8823 15.7041 66.8016 15.3105C66.7209 14.917 66.509 14.5588 66.1659 14.2358C65.8329 13.9028 65.3233 13.7161 64.6371 13.6758V13.2065H73.931V13.6758C72.5687 13.8574 71.8876 14.6899 71.8876 16.1733V21.6074C69.506 22.6973 66.8117 23.2422 63.8046 23.2422C62.5936 23.2422 61.4937 23.1615 60.5047 23C59.5259 22.8285 58.653 22.5964 57.8861 22.3037C57.1192 22.001 56.4733 21.6781 55.9486 21.335C55.4239 20.9818 54.9294 20.5882 54.4652 20.1543C53.8295 19.5488 53.2593 18.8525 52.7547 18.0654C52.2603 17.2783 51.8516 16.3651 51.5287 15.3257C51.2158 14.2762 51.0594 13.1258 51.0594 11.8745C51.0594 10.1893 51.3571 8.65039 51.9525 7.25781C52.558 5.86523 53.4107 4.65934 54.5106 3.64014C55.6105 2.61084 56.8669 1.82878 58.2796 1.29395C59.7025 0.759115 61.201 0.491699 62.7753 0.491699C63.6633 0.491699 64.4302 0.552246 65.076 0.67334C65.7219 0.794434 66.8067 1.0568 68.3304 1.46045C68.8148 1.62191 69.3395 1.70264 69.9046 1.70264C70.5 1.70264 70.8936 1.30908 71.0853 0.521973H71.5243V6.87939ZM88.3254 0.491699L95.8181 19.7759C96.2218 20.7648 96.696 21.446 97.241 21.8193C97.7859 22.1826 98.4569 22.4299 99.2541 22.561V23H88.6887V22.561C90.1317 22.4803 90.8533 22.0262 90.8533 21.1987C90.8533 21.0675 90.828 20.8859 90.7776 20.6538C90.7372 20.4116 90.6767 20.1593 90.5959 19.897C90.5253 19.6245 90.4799 19.458 90.4597 19.3975L88.5979 14.6597H81.9377L80.3484 19.2158C80.1466 19.7607 80.0456 20.2552 80.0456 20.6992C80.0456 21.3854 80.2475 21.8496 80.6511 22.0918C81.0548 22.3239 81.5341 22.4803 82.0891 22.561V23H75.3987V22.561C76.095 22.4904 76.7458 22.1675 77.3513 21.5923C77.9568 21.007 78.5421 19.9373 79.1072 18.3833L85.4343 0.491699H88.3254ZM82.4524 13.1763H88.0076L85.1316 5.66846L82.4524 13.1763ZM100.631 1.1123V0.703613H111.106V1.14258C109.945 1.14258 109.193 1.40999 108.85 1.94482C108.517 2.46956 108.351 3.16585 108.351 4.03369V19.6851C108.351 20.1795 108.396 20.6235 108.487 21.0171C108.578 21.4106 108.815 21.7689 109.198 22.0918C109.592 22.4046 110.187 22.561 110.984 22.561H111.106V23H100.631V22.561C101.781 22.561 102.528 22.2987 102.871 21.7739C103.214 21.2492 103.386 20.5529 103.386 19.6851V4.03369C103.386 3.00439 103.159 2.2627 102.705 1.80859C102.261 1.3444 101.569 1.1123 100.631 1.1123ZM139.592 0.703613L139.94 4.6543H139.501C139.279 3.99837 139.062 3.49886 138.85 3.15576C138.648 2.81266 138.305 2.52507 137.821 2.29297C137.336 2.06087 136.655 1.94482 135.777 1.94482H131.418V11.0723H135.217C136.014 11.0723 136.741 10.8704 137.397 10.4668C138.063 10.0531 138.421 9.31136 138.472 8.2417H138.941V14.6899H138.472C138.421 14.0239 138.169 13.4588 137.715 12.9946C137.261 12.5304 136.554 12.2983 135.596 12.2983H131.418V19.6851C131.418 20.5327 131.615 21.224 132.008 21.7588C132.402 22.2936 133.113 22.561 134.142 22.561H134.294V23H123.728V22.561C124.869 22.561 125.605 22.3037 125.938 21.7891C126.281 21.2744 126.453 20.5731 126.453 19.6851V4.00342C126.453 3.21631 126.302 2.54525 125.999 1.99023C125.706 1.42513 125 1.14258 123.88 1.14258H123.728V0.703613H139.592ZM141.816 1.1123V0.703613H152.291V1.14258C151.13 1.14258 150.379 1.40999 150.035 1.94482C149.702 2.46956 149.536 3.16585 149.536 4.03369V19.6851C149.536 20.1795 149.581 20.6235 149.672 21.0171C149.763 21.4106 150 21.7689 150.384 22.0918C150.777 22.4046 151.372 22.561 152.17 22.561H152.291V23H141.816V22.561C142.967 22.561 143.713 22.2987 144.056 21.7739C144.4 21.2492 144.571 20.5529 144.571 19.6851V4.03369C144.571 3.00439 144.344 2.2627 143.89 1.80859C143.446 1.3444 142.755 1.1123 141.816 1.1123ZM161.841 0.703613L175.449 15.0684V4.86621C175.449 3.52409 175.177 2.61084 174.632 2.12646C174.087 1.632 173.255 1.30404 172.134 1.14258V0.703613H179.824V1.14258C178.976 1.2334 178.346 1.46549 177.932 1.83887C177.518 2.20215 177.251 2.63102 177.13 3.12549C177.008 3.61995 176.948 4.2002 176.948 4.86621V23.2422H176.388L160.07 6.07715V18.6255C160.07 19.675 160.292 20.5731 160.736 21.3198C161.191 22.0565 162.023 22.4702 163.234 22.561V23H155.272V22.561C157.502 22.3794 158.607 21.2845 158.587 19.2764V4.51807C158.527 4.4777 158.446 4.40706 158.345 4.30615C158.254 4.21533 158.103 4.06901 157.891 3.86719C157.679 3.66536 157.487 3.48372 157.316 3.32227C155.963 2.02051 154.778 1.29395 153.758 1.14258V0.703613H161.841ZM181.095 0.703613H193.28C195.268 0.703613 197.049 1.01139 198.623 1.62695C200.207 2.23242 201.529 3.07503 202.589 4.15479C203.648 5.23454 204.446 6.46566 204.98 7.84814C205.515 9.22054 205.783 10.6737 205.783 12.2075C205.783 13.701 205.53 15.0936 205.026 16.3853C204.531 17.6769 203.78 18.8223 202.771 19.8213C201.761 20.8203 200.5 21.6024 198.986 22.1675C197.473 22.7225 195.767 23 193.87 23H181.095V22.561C182.265 22.561 183.017 22.3037 183.35 21.7891C183.693 21.2643 183.865 20.563 183.865 19.6851V4.09424C183.865 3.26676 183.713 2.57048 183.411 2.00537C183.108 1.43018 182.391 1.14258 181.261 1.14258H181.095V0.703613ZM188.814 2.20215V18.5347C188.814 19.3218 188.9 19.9474 189.072 20.4116C189.253 20.8758 189.586 21.2189 190.071 21.4409C190.555 21.6528 191.287 21.7588 192.266 21.7588C193.144 21.7588 193.931 21.7033 194.627 21.5923C195.323 21.4712 195.979 21.2391 196.595 20.896C197.503 20.3713 198.25 19.6497 198.835 18.7314C199.43 17.8132 199.864 16.804 200.137 15.7041C200.409 14.6042 200.545 13.4689 200.545 12.2983C200.545 11.0874 200.384 9.88151 200.061 8.68066C199.738 7.47982 199.208 6.36979 198.472 5.35059C197.745 4.33138 196.756 3.50895 195.505 2.8833C194.264 2.25765 192.75 1.94482 190.964 1.94482C190.328 1.94482 189.612 2.0306 188.814 2.20215ZM224.098 0.703613L224.279 5.69873H223.84C223.638 4.86117 223.411 4.16992 223.159 3.625C222.917 3.08008 222.569 2.66634 222.115 2.38379C221.661 2.09115 221.04 1.94482 220.253 1.94482H215.757V11.3145H219.345C220.414 11.3145 221.191 11.0773 221.676 10.603C222.17 10.1287 222.458 9.42741 222.538 8.49902H222.977V15.0381H222.538C222.387 14.0492 222.019 13.3882 221.434 13.0552C220.848 12.7222 220.152 12.5557 219.345 12.5557H215.757V18.9736C215.757 20.8304 216.716 21.7588 218.633 21.7588H219.996C220.914 21.7588 221.661 21.6377 222.236 21.3955C222.821 21.1533 223.3 20.7396 223.674 20.1543C224.057 19.5589 224.4 18.7214 224.703 17.6416H225.142L224.809 23H208.007V22.561C209.178 22.561 209.935 22.2987 210.278 21.7739C210.621 21.2391 210.792 20.5428 210.792 19.6851V4.06396C210.792 3.24658 210.636 2.55534 210.323 1.99023C210.01 1.42513 209.289 1.14258 208.159 1.14258H208.007V0.703613H224.098ZM235.192 12.5557H234.481V19.6851C234.481 20.5327 234.607 21.1685 234.859 21.5923C235.111 22.006 235.419 22.2734 235.783 22.3945C236.146 22.5055 236.63 22.5711 237.236 22.5913V23H226.761V22.561C227.932 22.561 228.683 22.2987 229.016 21.7739C229.349 21.2492 229.516 20.5529 229.516 19.6851V4.06396C229.516 2.9943 229.299 2.24251 228.865 1.80859C228.431 1.36458 227.73 1.14258 226.761 1.14258V0.703613H238.325C239.849 0.703613 241.186 0.940755 242.337 1.41504C243.487 1.88932 244.365 2.56038 244.97 3.42822C245.576 4.29606 245.879 5.29004 245.879 6.41016C245.879 7.31836 245.687 8.12565 245.303 8.83203C244.92 9.53841 244.4 10.1187 243.744 10.5728C243.099 11.0269 242.377 11.375 241.58 11.6172C242.619 12.2731 243.628 13.4336 244.607 15.0986L247.271 19.6245C247.725 20.4015 248.144 21.007 248.528 21.4409C248.911 21.8647 249.249 22.1473 249.542 22.2886C249.834 22.4198 250.152 22.5106 250.495 22.561V23H243.305C242.609 21.7386 242.074 20.7345 241.701 19.9878C240.51 17.6567 239.642 16.0371 239.097 15.1289C238.553 14.2207 237.987 13.5648 237.402 13.1611C236.827 12.7575 236.09 12.5557 235.192 12.5557ZM235.692 1.94482H234.481V11.3145H235.495C237.231 11.3145 238.537 10.9007 239.415 10.0732C240.293 9.23568 240.732 8.03483 240.732 6.4707C240.732 5.50195 240.54 4.68457 240.157 4.01855C239.784 3.34245 239.219 2.8278 238.462 2.47461C237.715 2.12142 236.792 1.94482 235.692 1.94482Z"
        fill="white" />
</svg>
    